:SAMPLES-PER-SECOND 30
:FULLY-SPECIFIED
:DEGREES
195
root  -1.17099 5.95306 15.2838 -49.2283 -7.68995 1.81251
RightUpLeg  -89.7956 -8.81965 9.09775
RightLeg  83.9825 15.4762 -9.48926
RightFoot  17.7 1.90355 -7.14432
RightToes  5.82077e-011 -3.18055e-015 -2.98177e-016
Spine  35.6267 3.43112 7.68453
Spine1  17.089 2.34417 4.1813
HEad  -20.1263 5.31105 1.06346
LeftShoulder1  -3.88251e-019 9.70628e-020 -3.87848e-018
LeftArm  -19.8098 65.5037 -57.3758
LeftForeArm  0.0358872 -2.35597 -1.58084
LeftHand  -8.8427 -9.67596 63.1443
RightShoulder  5.10463 9.64005 24.3567
RightArm  4.76992 -64.6362 7.20645
RightForeArm  -8.51466 6.78705 -7.27076
RightHand  -7.5733 6.5348 -65.2491
LeftUpLeg  -85.732 10.0221 4.50909
LeftLeg  92.2515 -14.5997 11.8742
LeftFoot  32.7778 -1.32326 3.35209
LeftToes  5.91571e-011 -3.44359e-011 -3.93244e-011
196
root  -1.21605 5.9886 15.3151 -48.7577 -7.02459 1.73223
RightUpLeg  -89.72 -8.93582 8.01404
RightLeg  86.9592 15.9377 -10.2941
RightFoot  17.2013 1.71404 -6.56381
RightToes  5.82077e-011 -3.18055e-015 -2.98177e-016
Spine  35.3896 3.22426 7.41206
Spine1  17.025 2.1981 3.93946
HEad  -20.1913 5.61404 2.06653
LeftShoulder1  -3.88251e-019 9.70628e-020 -3.87848e-018
LeftArm  -20.0064 65.1241 -57.113
LeftForeArm  1.10731 -1.94527 -1.31118
LeftHand  -8.61784 -9.52379 62.3653
RightShoulder  5.04532 9.52531 24.2334
RightArm  2.8494 -64.5159 8.9771
RightForeArm  -8.28245 5.52082 -7.42028
RightHand  -7.49113 6.36708 -65.4133
LeftUpLeg  -86.1868 9.56407 3.97632
LeftLeg  92.1018 -14.61 12.2037
LeftFoot  32.5535 -1.32574 3.37472
LeftToes  5.91571e-011 -3.44359e-011 -3.93244e-011
197
root  -1.25533 6.00521 15.3492 -48.2935 -6.17885 1.69399
RightUpLeg  -88.9783 -9.21162 6.78888
RightLeg  90.0663 16.4529 -10.3802
RightFoot  16.5585 1.64229 -6.43719
RightToes  5.82077e-011 -3.18055e-015 -2.98177e-016
Spine  34.8866 3.07017 6.87901
Spine1  17.2168 1.97418 3.89303
HEad  -19.6436 5.81065 3.07079
LeftShoulder1  -3.88251e-019 9.70628e-020 -3.87848e-018
LeftArm  -20.0598 64.8481 -57.0134
LeftForeArm  1.80859 -1.77323 -1.19552
LeftHand  -8.61462 -9.70816 61.7053
RightShoulder  4.96513 9.42452 23.9623
RightArm  0.0427651 -64.2312 11.4572
RightForeArm  -7.48423 3.61457 -7.71752
RightHand  -7.59708 6.53679 -65.4045
LeftUpLeg  -86.7065 9.01037 3.27269
LeftLeg  92.0274 -14.595 12.1961
LeftFoot  32.2974 -1.32148 3.38352
LeftToes  5.91571e-011 -3.44359e-011 -3.93244e-011
198
root  -1.26461 6.03626 15.335 -47.7459 -6.01777 1.36503
RightUpLeg  -87.9381 -9.29174 6.55041
RightLeg  91.0523 16.5763 -9.92435
RightFoot  17.7488 1.98802 -7.42473
RightToes  5.82077e-011 -3.18055e-015 -2.98177e-016
Spine  34.5073 2.83685 7.25579
Spine1  17.0646 1.92732 3.70579
HEad  -18.6871 6.03437 4.2455
LeftShoulder1  -3.88251e-019 9.70628e-020 -3.87848e-018
LeftArm  -19.8502 64.5661 -56.8756
LeftForeArm  2.0781 -1.68047 -1.2893
LeftHand  -8.81405 -10.0638 61.6506
RightShoulder  4.97258 9.4384 23.9788
RightArm  -2.32385 -63.7054 13.3083
RightForeArm  -6.64966 1.64483 -7.99745
RightHand  -7.74 6.77391 -65.357
LeftUpLeg  -87.2313 8.66498 3.35682
LeftLeg  91.9087 -14.5609 12.1044
LeftFoot  32.2105 -1.22891 3.16873
LeftToes  5.91571e-011 -3.44359e-011 -3.93244e-011
199
root  -1.26498 6.11505 15.276 -46.8894 -6.72489 0.694356
RightUpLeg  -87.357 -9.06648 7.51421
RightLeg  89.9315 16.334 -8.99808
RightFoot  21.0841 2.46751 -8.27307
RightToes  5.82077e-011 -3.18055e-015 -2.98177e-016
Spine  34.1453 2.67205 8.77871
Spine1  16.5078 2.17322 3.44889
HEad  -17.75 5.90062 5.33193
LeftShoulder1  -3.88251e-019 9.70628e-020 -3.87848e-018
LeftArm  -19.5926 64.0733 -56.6734
LeftForeArm  2.49897 -1.45331 -1.43311
LeftHand  -8.85181 -10.1657 61.5245
RightShoulder  5.02166 9.49169 24.1612
RightArm  -3.34855 -63.449 13.9325
RightForeArm  -6.47334 0.51125 -8.1253
RightHand  -7.77129 6.8176 -65.3821
LeftUpLeg  -87.9302 8.76068 4.29208
LeftLeg  91.7223 -14.5047 11.9301
LeftFoot  32.3906 -1.23774 3.17634
LeftToes  5.91571e-011 -3.44359e-011 -3.93244e-011
200
root  -1.29891 6.18924 15.249 -46.118 -7.18462 0.288917
RightUpLeg  -87.2509 -8.93419 8.20206
RightLeg  88.9964 16.1076 -7.25348
RightFoot  24.7952 2.6688 -8.04176
RightToes  5.82077e-011 -3.18055e-015 -2.98177e-016
Spine  33.5058 2.7753 9.9211
Spine1  16.4255 2.46461 3.3814
HEad  -16.9255 5.05263 5.91454
LeftShoulder1  -3.88251e-019 9.70628e-020 -3.87848e-018
LeftArm  -19.4006 63.4002 -56.5091
LeftForeArm  3.03902 -1.2099 -1.54339
LeftHand  -8.65361 -9.96794 61.0475
RightShoulder  5.03701 9.50388 24.2265
RightArm  -3.29972 -63.8318 13.8023
RightForeArm  -7.16237 0.586041 -8.16771
RightHand  -7.66879 6.64059 -65.4459
LeftUpLeg  -88.656 9.10188 4.64561
LeftLeg  91.9098 -14.4062 10.7254
LeftFoot  32.2701 -1.48434 3.77796
LeftToes  5.91571e-011 -3.44359e-011 -3.93244e-011
201
root  -1.37017 6.204 15.2887 -45.9263 -6.62955 0.596861
RightUpLeg  -87.2753 -9.15563 7.65259
RightLeg  89.5078 16.0547 -5.10349
RightFoot  27.4783 2.66122 -7.47051
RightToes  5.82077e-011 -3.18055e-015 -2.98177e-016
Spine  32.7561 3.03407 9.60001
Spine1  17.1028 2.54314 3.45185
HEad  -15.9051 3.91594 6.16599
LeftShoulder1  -3.88251e-019 9.70628e-020 -3.87848e-018
LeftArm  -18.9401 62.8769 -56.163
LeftForeArm  3.02112 -1.24421 -1.72342
LeftHand  -8.45519 -9.69045 60.8266
RightShoulder  5.0789 9.53166 24.414
RightArm  -2.65386 -64.4492 13.1688
RightForeArm  -8.26035 1.38973 -8.22727
RightHand  -7.49776 6.36002 -65.4911
LeftUpLeg  -89.1148 9.47248 3.49466
LeftLeg  92.7809 -14.2477 8.09918
LeftFoot  30.995 -1.56732 4.08902
LeftToes  5.91571e-011 -3.44359e-011 -3.93244e-011
202
root  -1.44949 6.17827 15.3582 -46.0948 -5.43377 1.34905
RightUpLeg  -87.4595 -9.51623 6.50645
RightLeg  90.3418 16.0576 -3.98628
RightFoot  29.145 2.87892 -7.72768
RightToes  5.82077e-011 -3.18055e-015 -2.98177e-016
Spine  32.3285 3.24629 8.30426
Spine1  17.683 2.39851 3.48687
HEad  -14.7369 3.16466 6.58107
LeftShoulder1  -3.88251e-019 9.70628e-020 -3.87848e-018
LeftArm  -17.9857 62.7239 -55.3622
LeftForeArm  2.47906 -1.53895 -2.03127
LeftHand  -8.40487 -9.5474 61.0181
RightShoulder  5.21172 9.61717 25.0092
RightArm  -1.49181 -64.7095 11.88
RightForeArm  -9.15069 2.20773 -8.21524
RightHand  -7.34547 6.1102 -65.5334
LeftUpLeg  -89.3568 9.84116 1.42957
LeftLeg  93.6921 -14.0706 5.66153
LeftFoot  28.584 -1.05209 2.9688
LeftToes  5.91571e-011 -3.44359e-011 -3.93244e-011
203
root  -1.51204 6.1613 15.3981 -46.1802 -4.36957 1.9011
RightUpLeg  -87.8188 -9.78241 5.7529
RightLeg  90.3616 16.0817 -4.43264
RightFoot  30.0614 3.32836 -8.69104
RightToes  5.82077e-011 -3.18055e-015 -2.98177e-016
Spine  32.3737 3.35046 7.17167
Spine1  17.6049 2.1525 3.56491
HEad  -14.0205 2.7022 7.08504
LeftShoulder1  -3.88251e-019 9.70628e-020 -3.87848e-018
LeftArm  -17.006 62.7729 -54.4226
LeftForeArm  2.25245 -1.81269 -2.31041
LeftHand  -8.48266 -9.67247 61.0505
RightShoulder  5.34255 9.67113 25.6475
RightArm  -0.161511 -64.634 10.4462
RightForeArm  -9.64408 2.74996 -8.04296
RightHand  -7.27236 5.97626 -65.6182
LeftUpLeg  -89.604 10.0372 -0.309322
LeftLeg  93.5816 -13.9791 4.96085
LeftFoot  26.0673 -0.285471 1.01468
LeftToes  5.91571e-011 -3.44359e-011 -3.93244e-011
204
root  -1.54879 6.18083 15.3782 -46.0919 -4.02032 1.84914
RightUpLeg  -87.94 -9.88147 5.67481
RightLeg  90.0552 16.0893 -4.93632
RightFoot  30.0646 3.50583 -9.13362
RightToes  5.82077e-011 -3.18055e-015 -2.98177e-016
Spine  32.6678 3.32806 7.02505
Spine1  17.28 1.99025 3.71024
HEad  -14.0358 1.95337 7.20276
LeftShoulder1  -3.88251e-019 9.70628e-020 -3.87848e-018
LeftArm  -16.6609 62.7438 -53.9897
LeftForeArm  2.53948 -1.9829 -2.37048
LeftHand  -8.59991 -9.95281 60.7866
RightShoulder  5.34678 9.61712 25.7755
RightArm  0.420861 -64.6489 10.009
RightForeArm  -9.95602 3.03777 -7.87465
RightHand  -7.26859 5.93847 -65.7642
LeftUpLeg  -89.8807 9.95935 -0.735424
LeftLeg  92.3582 -13.8901 4.93762
LeftFoot  24.1998 0.0532706 0.0532509
LeftToes  5.91571e-011 -3.44359e-011 -3.93244e-011
205
root  -1.55803 6.22797 15.3308 -45.8937 -4.46067 1.39685
RightUpLeg  -87.6996 -9.70283 5.96002
RightLeg  90.1683 16.0658 -4.35754
RightFoot  29.326 3.15414 -8.39827
RightToes  5.82077e-011 -3.18055e-015 -2.98177e-016
Spine  32.866 3.1767 7.88129
Spine1  17.2195 2.06977 3.6077
HEad  -14.3179 0.881111 7.01601
LeftShoulder1  -3.88251e-019 9.70628e-020 -3.87848e-018
LeftArm  -16.8884 62.5498 -54.1254
LeftForeArm  2.6398 -2.14872 -2.22585
LeftHand  -8.63744 -10.0536 60.6674
RightShoulder  5.24785 9.51252 25.4168
RightArm  -0.403252 -64.8993 11.1077
RightForeArm  -10.168 2.96066 -7.93847
RightHand  -7.29684 5.94161 -65.9532
LeftUpLeg  -90.0453 9.80131 0.249326
LeftLeg  91.1895 -13.7182 3.67811
LeftFoot  22.9492 -0.0427993 0.332065
LeftToes  5.91571e-011 -3.44359e-011 -3.93244e-011
206
root  -1.54415 6.24863 15.317 -45.9183 -4.99118 1.13784
RightUpLeg  -87.3754 -9.25326 6.01279
RightLeg  90.3946 16.0576 -3.94803
RightFoot  28.5493 2.74491 -7.49673
RightToes  5.82077e-011 -3.18055e-015 -2.98177e-016
Spine  32.9767 2.90888 8.85512
Spine1  17.5808 2.28136 3.04764
HEad  -14.4154 -0.0107872 7.05214
LeftShoulder1  -3.88251e-019 9.70628e-020 -3.87848e-018
LeftArm  -17.1472 62.2287 -54.3538
LeftForeArm  2.30084 -2.18816 -2.04165
LeftHand  -8.57225 -9.90211 60.796
RightShoulder  5.14049 9.45343 24.917
RightArm  -2.46346 -65.1812 13.3257
RightForeArm  -10.014 2.28578 -8.23105
RightHand  -7.37364 6.02686 -66.1124
LeftUpLeg  -89.7075 9.49933 1.61469
LeftLeg  91.2292 -13.5889 1.67264
LeftFoot  22.4996 -0.0790411 0.445181
LeftToes  5.91571e-011 -3.44359e-011 -3.93244e-011
207
root  -1.52846 6.1988 15.3702 -46.3203 -4.82358 1.42055
RightUpLeg  -87.3502 -8.73107 5.44426
RightLeg  90.2866 16.1188 -5.13626
RightFoot  28.3083 2.7965 -7.67495
RightToes  5.82077e-011 -3.18055e-015 -2.98177e-016
Spine  32.9575 2.71191 8.89587
Spine1  18.4401 2.32443 2.50194
HEad  -14.4012 -0.511204 7.32724
LeftShoulder1  -3.88251e-019 9.70628e-020 -3.87848e-018
LeftArm  -17.3581 61.8242 -54.5546
LeftForeArm  2.07097 -1.89907 -1.91197
LeftHand  -8.55601 -9.84702 60.887
RightShoulder  5.03853 9.43764 24.3607
RightArm  -5.08946 -65.2939 16.0145
RightForeArm  -9.44226 1.09879 -8.56947
RightHand  -7.49706 6.21214 -66.1453
LeftUpLeg  -88.7877 8.74492 2.07675
LeftLeg  92.2094 -13.5535 0.88075
LeftFoot  23.7848 0.0422257 0.0780817
LeftToes  5.91571e-011 -3.44359e-011 -3.93244e-011
208
root  -1.52055 6.12362 15.4414 -46.738 -4.31009 1.79474
RightUpLeg  -87.48 -8.31305 4.76842
RightLeg  89.9892 16.1984 -6.92348
RightFoot  28.5709 3.14657 -8.53821
RightToes  5.82077e-011 -3.18055e-015 -2.98177e-016
Spine  32.7388 2.68096 8.32309
Spine1  19.5418 2.13694 2.46176
HEad  -14.2819 -0.8357 7.36617
LeftShoulder1  -3.88251e-019 9.70628e-020 -3.87848e-018
LeftArm  -17.8406 61.4769 -54.9896
LeftForeArm  2.17456 -1.49768 -1.819
LeftHand  -8.66515 -10.0305 60.9049
RightShoulder  4.93202 9.4093 23.7992
RightArm  -7.36442 -65.1275 18.4312
RightForeArm  -9.02086 0.0172851 -8.78309
RightHand  -7.52262 6.27402 -66.0463
LeftUpLeg  -87.7178 7.69604 1.8359
LeftLeg  92.7361 -13.5996 1.45046
LeftFoot  27.247 0.0565936 0.0523382
LeftToes  5.91571e-011 -3.44359e-011 -3.93244e-011
209
root  -1.50516 6.10075 15.4501 -46.7599 -4.40626 1.6541
RightUpLeg  -87.3619 -8.04071 4.75615
RightLeg  89.797 16.2021 -7.30281
RightFoot  29.0854 3.23172 -8.65152
RightToes  5.82077e-011 -3.18055e-015 -2.98177e-016
Spine  32.4948 2.63491 8.30898
Spine1  20.2196 1.95242 2.68743
HEad  -13.7254 -1.0543 7.0437
LeftShoulder1  -3.88251e-019 9.70628e-020 -3.87848e-018
LeftArm  -18.476 61.4501 -55.5608
LeftForeArm  2.10668 -1.44304 -1.76325
LeftHand  -8.74259 -10.1262 61.0324
RightShoulder  4.88443 9.37987 23.5787
RightArm  -8.19566 -64.6991 19.4572
RightForeArm  -9.17543 -0.28382 -8.78786
RightHand  -7.33357 6.00304 -65.9353
LeftUpLeg  -87.0287 6.88253 2.18812
LeftLeg  92.0941 -13.6277 1.93767
LeftFoot  31.6307 -0.00970466 0.250357
LeftToes  5.91571e-011 -3.44359e-011 -3.93244e-011
